<svg xmlns="http://www.w3.org/2000/svg" viewBox="0 0 314.2 107.66"><defs><style>.cls-1{fill:#282828;}.cls-2{fill:#226eb3;}.cls-3{fill:#236fb3;}.cls-4{fill:#049849;}.cls-5{fill:#e22728;}.cls-6{fill:#06192b;}</style></defs><g id="Layer_2" data-name="Layer 2"><g id="Layer_1-2" data-name="Layer 1"><path class="cls-1" d="M199,56a7.78,7.78,0,0,0,2.26,5.55,7.66,7.66,0,0,0,5.62,2.34,7.42,7.42,0,0,0,5.54-2.34,7.66,7.66,0,0,0,2.34-5.62v0H199Z"/><path class="cls-1" d="M202.61,12.1a41.54,41.54,0,0,0-58.61,0,40,40,0,0,0-12.18,29.34A40,40,0,0,0,144,70.78,40,40,0,0,0,173.34,83q10.38,0,17.33-3.83a7.87,7.87,0,0,0,3.2-10.69,7.36,7.36,0,0,0-4.61-3.82q-2-.63-6.09.62a30.8,30.8,0,0,1-9.83,1.88,24.73,24.73,0,0,1-18.18-7.5,24.76,24.76,0,0,1-7.57-18.18,24.54,24.54,0,0,1,7.57-18.11,25.53,25.53,0,0,1,36.29,0c5,5,7.57,21.18,7.57,28.25v4.28h15.76V51.58C214.78,40.14,210.72,20.21,202.61,12.1Z"/><path class="cls-1" d="M117.3,12.1Q106.77,0,91.93,0q-17.16,0-28,15.53Q53.06,0,35.9,0A31.57,31.57,0,0,0,15.77,7.18,7.93,7.93,0,0,0,13.19,2,7.54,7.54,0,0,0,7.88,0,7.54,7.54,0,0,0,2.34,2.26,7.67,7.67,0,0,0,0,7.88V75a7.67,7.67,0,0,0,2.34,5.62A7.42,7.42,0,0,0,7.88,83a7.66,7.66,0,0,0,5.62-2.34A7.81,7.81,0,0,0,15.77,75V41.44A28.52,28.52,0,0,1,21.7,23.26q5.93-7.5,14.2-7.5t14.2,7.57A28.25,28.25,0,0,1,56,41.44V75a7.81,7.81,0,0,0,2.27,5.62,7.92,7.92,0,0,0,11.24,0A7.84,7.84,0,0,0,71.8,75V41.44a28.31,28.31,0,0,1,5.93-18.11q5.85-7.56,14.2-7.57t14.21,7.57a28.31,28.31,0,0,1,5.93,18.11V59.1h15.76V41.44Q127.83,24.28,117.3,12.1Z"/><path class="cls-1" d="M112.07,59.88a7.78,7.78,0,0,0,2.26,5.62A7.67,7.67,0,0,0,120,67.84a7.4,7.4,0,0,0,5.54-2.34,7.66,7.66,0,0,0,2.34-5.62V59.1H112.07Z"/><path class="cls-1" d="M252.17,67.12l49.47-53.93a7.22,7.22,0,0,0,1.41-8.51A7.24,7.24,0,0,0,295.87,0H234.22a7.5,7.5,0,0,0-5.54,2.26,7.65,7.65,0,0,0-2.35,5.62,7.38,7.38,0,0,0,2.35,5.54,7.39,7.39,0,0,0,5.54,2.34h43.62l-49.4,53.93A7.27,7.27,0,0,0,227,78.2,7.25,7.25,0,0,0,234.22,83H278V67.12Z"/><path class="cls-1" d="M289.2,75a7.58,7.58,0,0,0-2.34-5.54,7.43,7.43,0,0,0-5.55-2.34H278V83h3.28a7.43,7.43,0,0,0,5.55-2.34A7.67,7.67,0,0,0,289.2,75Z"/><path class="cls-2" d="M296.31,78l3.53-11.24a7.53,7.53,0,0,0-1.35-.13h-14.6a7.23,7.23,0,0,1,5.54,2.48,8.65,8.65,0,0,1,0,11.83,7.21,7.21,0,0,1-5.54,2.49h14.6a8.17,8.17,0,0,0,7.92-8.4,9.45,9.45,0,0,0-.07-1.07Z"/><path class="cls-3" d="M306.85,63.78l-.16.19c-1.05-1.49-2-2.94-3-4.4l-1.49,4.72-3.55,11.29,12.05-4.85,3.53-1.41-4.58-2.72.09-.1c.67-.72,1.34-1.44,2-2.17a2,2,0,0,0-.93-3.25,1.89,1.89,0,0,0-2,.59C308.15,62.37,307.5,63.08,306.85,63.78Z"/><path class="cls-4" d="M222.35,83.88l-.19-.17c1.49-1,2.94-2,4.4-3l-4.72-1.48-11.29-3.55,4.85,12,1.41,3.52c.92-1.54,1.82-3,2.72-4.58l.1.1,2.17,2a1.91,1.91,0,0,0,1.78.49,2,2,0,0,0,.89-3.39Z"/><path class="cls-5" d="M125.77,68.08A8,8,0,0,1,120,70.42,8.27,8.27,0,0,1,114,68.08a7.64,7.64,0,0,1-2.37-5.62V74.57l11-.58-7.46,10.14a8.56,8.56,0,0,0,4.71,1.4,8.08,8.08,0,0,0,8.28-7.88V62.46A7.47,7.47,0,0,1,125.77,68.08Z"/><path class="cls-5" d="M106.19,85.55l.25-.13c.58,2,1.07,3.93,1.63,5.9l3.39-4.56,8.08-10.89-14.88.72-4.34.21,3.93,4.66-.13.08-3,1.59a2.26,2.26,0,1,0,2.13,4C104.25,86.6,105.22,86.07,106.19,85.55Z"/><path class="cls-4" d="M207.82,73.26l7.61,2.39V57.9A7.49,7.49,0,0,1,213,63.52a8,8,0,0,1-5.85,2.34,8.33,8.33,0,0,1-5.93-2.34A7.63,7.63,0,0,1,198.8,58V77.89a8.57,8.57,0,0,0,8.32,7.88,7.45,7.45,0,0,0,1.64-.16,8.44,8.44,0,0,0,3.4-1.55Z"/><path class="cls-6" d="M8.81,107.66a10.89,10.89,0,0,1-2.63-.32,7.73,7.73,0,0,1-2.31-1,5,5,0,0,1-1.66-1.75A5,5,0,0,1,1.58,102H4.06a4.35,4.35,0,0,0,.06.47,3.06,3.06,0,0,0,.31.89,3.35,3.35,0,0,0,.77,1,4,4,0,0,0,1.44.78,7.43,7.43,0,0,0,2.35.31,5.83,5.83,0,0,0,1.79-.24,3.27,3.27,0,0,0,1.18-.61,2.53,2.53,0,0,0,.64-.8,1.93,1.93,0,0,0,.19-.74,1.85,1.85,0,0,0-.56-1.47,4.14,4.14,0,0,0-1.56-.9,20.17,20.17,0,0,0-2.13-.61c-.76-.17-1.53-.38-2.3-.61a10.8,10.8,0,0,1-2.1-.9,4.15,4.15,0,0,1-1.51-1.46,4.11,4.11,0,0,1-.48-2.3,3.8,3.8,0,0,1,.94-2.33,5.57,5.57,0,0,1,2.36-1.51,10.32,10.32,0,0,1,3.42-.53,8.19,8.19,0,0,1,3.2.62,5.48,5.48,0,0,1,2.35,1.86A5,5,0,0,1,15.3,96H12.88a2.78,2.78,0,0,0-.41-1.65,3.1,3.1,0,0,0-1.13-1,4.8,4.8,0,0,0-1.41-.48,7.44,7.44,0,0,0-1.33-.14,5.46,5.46,0,0,0-2.73.62A2,2,0,0,0,4.77,95a1.85,1.85,0,0,0,.56,1.49,4.3,4.3,0,0,0,1.56.87c.65.22,1.37.41,2.15.59s1.57.37,2.33.59a9.73,9.73,0,0,1,2.11.87A4.07,4.07,0,0,1,15,100.91a4.23,4.23,0,0,1,.48,2.36,3.64,3.64,0,0,1-.94,2.36,5.81,5.81,0,0,1-2.36,1.5A10,10,0,0,1,8.81,107.66Z"/><path class="cls-6" d="M23.37,107.6a6.39,6.39,0,0,1-3.31-.79,4.92,4.92,0,0,1-2-2.2,8.2,8.2,0,0,1,0-6.4A5,5,0,0,1,20,96a6.41,6.41,0,0,1,3.33-.79,5.56,5.56,0,0,1,4.4,1.71,6.59,6.59,0,0,1,1.5,4.51,7.56,7.56,0,0,1-.63,3.14,5,5,0,0,1-1.95,2.21A6.21,6.21,0,0,1,23.37,107.6Zm0-2.09a3.34,3.34,0,0,0,2.17-.62,3.25,3.25,0,0,0,1.05-1.58,6.77,6.77,0,0,0,0-3.92,3.3,3.3,0,0,0-1.05-1.58,3.34,3.34,0,0,0-2.17-.62,3.46,3.46,0,0,0-2.19.62,3.22,3.22,0,0,0-1.08,1.58,6.77,6.77,0,0,0,0,3.92,3.17,3.17,0,0,0,1.08,1.58A3.46,3.46,0,0,0,23.37,105.51Z"/><path class="cls-6" d="M30.83,97V95.25h7.4V97Zm1.74,10.35V93a2.89,2.89,0,0,1,.59-2A2.4,2.4,0,0,1,35,90.32h3.36v2H35.05v15.1Z"/><path class="cls-6" d="M39.94,97V95.25A5.28,5.28,0,0,0,41,95.16a1.11,1.11,0,0,0,.65-.37,1.81,1.81,0,0,0,.33-.91,13.34,13.34,0,0,0,.08-1.73h2v3.1H46.9V97Zm4.28,10.29a2.36,2.36,0,0,1-1.83-.65,2.87,2.87,0,0,1-.59-2v-8h2.33v8.64h2.8v2Z"/><path class="cls-6" d="M51.35,107.31l-3-11.62v-.47h2.38l2.36,10h.06l2.83-10h2.15l2.92,10h.06l2.33-10h2.39v.47l-3,11.62H59.34L57.1,99.49H57l-2.21,7.82Z"/><path class="cls-6" d="M71.76,107.6a4.31,4.31,0,0,1-2.7-.79,4.49,4.49,0,0,1-1.52-2.2,9.84,9.84,0,0,1-.47-3.2,10.08,10.08,0,0,1,.48-3.26A4.58,4.58,0,0,1,69.09,96a4.2,4.2,0,0,1,2.67-.8,4.65,4.65,0,0,1,1.73.28,4,4,0,0,1,1.18.69,4.44,4.44,0,0,1,.76.84,8,8,0,0,1,.42.75h0V95.25h2.54v12.06H76.3l-.39-2.16h-.06a4.3,4.3,0,0,1-1.21,1.54,4.31,4.31,0,0,1-1.17.65A5.13,5.13,0,0,1,71.76,107.6Zm1-2.12a3,3,0,0,0,1.85-.52,2.79,2.79,0,0,0,1-1.43,7,7,0,0,0,.29-2.09,6.59,6.59,0,0,0-.31-2.17,2.67,2.67,0,0,0-1-1.38,3.66,3.66,0,0,0-3.76.06,2.93,2.93,0,0,0-1,1.44,6.46,6.46,0,0,0-.3,2,6.63,6.63,0,0,0,.3,2,2.9,2.9,0,0,0,1,1.46A3.2,3.2,0,0,0,72.76,105.48Z"/><path class="cls-6" d="M80.78,107.31V95.25h2.27l.2,3.48,0,2.59v6Zm2.44-5.4-.08-2.65a4.1,4.1,0,0,1,.29-1.36,4.15,4.15,0,0,1,.81-1.3,4.29,4.29,0,0,1,1.42-1,5.29,5.29,0,0,1,2.1-.38h.51V98h-.53a8.18,8.18,0,0,0-2.22.25,3.13,3.13,0,0,0-1.38.74,2.62,2.62,0,0,0-.71,1.22A6.25,6.25,0,0,0,83.22,101.91Z"/><path class="cls-6" d="M95.4,107.6a5.7,5.7,0,0,1-3.33-.9,5.44,5.44,0,0,1-1.92-2.31,7.76,7.76,0,0,1-.65-3,7.14,7.14,0,0,1,.7-3.18,5.45,5.45,0,0,1,2-2.25,5.79,5.79,0,0,1,3.14-.82,5.7,5.7,0,0,1,2.83.69,5.15,5.15,0,0,1,2,2,6.22,6.22,0,0,1,.79,3,1.24,1.24,0,0,1,0,.34v.4H91.86a4.26,4.26,0,0,0,.93,2.93,3.27,3.27,0,0,0,2.58,1.05,3.43,3.43,0,0,0,2.11-.64,2.53,2.53,0,0,0,1-1.69h2.41a5,5,0,0,1-.88,2.24A4.89,4.89,0,0,1,98.17,107,6.28,6.28,0,0,1,95.4,107.6ZM92,100.35h6.52a3.11,3.11,0,0,0-.15-.84,4.16,4.16,0,0,0-.5-1.05,2.85,2.85,0,0,0-1-.88,3.12,3.12,0,0,0-1.57-.36,3.4,3.4,0,0,0-1.5.31,3.05,3.05,0,0,0-1,.78,3.48,3.48,0,0,0-.58,1A4.87,4.87,0,0,0,92,100.35Z"/><path class="cls-6" d="M117,107.66a10.8,10.8,0,0,1-2.62-.32,7.68,7.68,0,0,1-2.32-1,5.06,5.06,0,0,1-1.66-1.75,5.13,5.13,0,0,1-.62-2.58h2.48a4.35,4.35,0,0,0,.06.47,3,3,0,0,0,.3.89,3.53,3.53,0,0,0,.77,1,4.1,4.1,0,0,0,1.45.78,7.41,7.41,0,0,0,2.34.31,5.85,5.85,0,0,0,1.8-.24,3.36,3.36,0,0,0,1.18-.61,2.63,2.63,0,0,0,.63-.8,1.76,1.76,0,0,0,.19-.74,1.81,1.81,0,0,0-.56-1.47,4.06,4.06,0,0,0-1.56-.9,20.67,20.67,0,0,0-2.12-.61c-.77-.17-1.54-.38-2.3-.61a10.89,10.89,0,0,1-2.11-.9,3.83,3.83,0,0,1-2-3.76,3.8,3.8,0,0,1,.94-2.33,5.57,5.57,0,0,1,2.36-1.51,10.32,10.32,0,0,1,3.42-.53,8.15,8.15,0,0,1,3.2.62,5.56,5.56,0,0,1,2.36,1.86,5,5,0,0,1,.87,3.09H121a2.78,2.78,0,0,0-.41-1.65,3.16,3.16,0,0,0-1.12-1,4.86,4.86,0,0,0-1.42-.48,7.43,7.43,0,0,0-1.32-.14,5.46,5.46,0,0,0-2.73.62A2,2,0,0,0,112.91,95a1.85,1.85,0,0,0,.56,1.49,4.44,4.44,0,0,0,1.57.87,21.14,21.14,0,0,0,2.15.59c.78.18,1.56.37,2.33.59a9.94,9.94,0,0,1,2.11.87,4,4,0,0,1,1.5,1.46,4.22,4.22,0,0,1,.49,2.36,3.64,3.64,0,0,1-1,2.36,5.75,5.75,0,0,1-2.36,1.5A10,10,0,0,1,117,107.66Z"/><path class="cls-6" d="M131.52,107.6a6.4,6.4,0,0,1-3.32-.79,5,5,0,0,1-2-2.2,8.2,8.2,0,0,1,0-6.4,5,5,0,0,1,2-2.2,6.36,6.36,0,0,1,3.33-.79,5.54,5.54,0,0,1,4.39,1.71,6.59,6.59,0,0,1,1.5,4.51,7.56,7.56,0,0,1-.63,3.14,4.92,4.92,0,0,1-1.95,2.21A6.2,6.2,0,0,1,131.52,107.6Zm0-2.09a3.33,3.33,0,0,0,2.16-.62,3.12,3.12,0,0,0,1-1.58,6.55,6.55,0,0,0,0-3.92,3.16,3.16,0,0,0-1-1.58,3.33,3.33,0,0,0-2.16-.62,3.47,3.47,0,0,0-2.2.62,3.13,3.13,0,0,0-1.07,1.58,6.55,6.55,0,0,0,0,3.92,3.09,3.09,0,0,0,1.07,1.58A3.47,3.47,0,0,0,131.52,105.51Z"/><path class="cls-6" d="M140,107.31V90.71h2.42v16.6Z"/><path class="cls-6" d="M149.32,107.6a4.85,4.85,0,0,1-2-.38,3.41,3.41,0,0,1-1.29-1,4.38,4.38,0,0,1-.72-1.45,7.52,7.52,0,0,1-.31-1.65c0-.57-.08-1.12-.08-1.65V95.25h2.42v6.19a8.6,8.6,0,0,0,.21,2,2.61,2.61,0,0,0,.85,1.46,2.88,2.88,0,0,0,1.92.56,2.84,2.84,0,0,0,1.9-.57,3.14,3.14,0,0,0,.94-1.46,7.49,7.49,0,0,0,.34-1.83V95.25H156v12.06H153.9l-.42-2.48h-.06a4.3,4.3,0,0,1-.34.72,3.71,3.71,0,0,1-.73.93,4.22,4.22,0,0,1-1.23.8A4.56,4.56,0,0,1,149.32,107.6Z"/><path class="cls-6" d="M157.58,97V95.25a5.28,5.28,0,0,0,1.09-.09,1.11,1.11,0,0,0,.65-.37,1.81,1.81,0,0,0,.33-.91,15.42,15.42,0,0,0,.08-1.73h2v3.1h2.77V97Zm4.28,10.29a2.36,2.36,0,0,1-1.83-.65,2.87,2.87,0,0,1-.59-2v-8h2.33v8.64h2.8v2Z"/><path class="cls-6" d="M168.58,93.57a1.36,1.36,0,0,1-1.17-.44,1.82,1.82,0,0,1-.31-1,1.66,1.66,0,0,1,.31-1,1.36,1.36,0,0,1,1.17-.43,1.24,1.24,0,0,1,1.13.43,1.71,1.71,0,0,1,.28,1,1.88,1.88,0,0,1-.28,1A1.24,1.24,0,0,1,168.58,93.57Zm-1.27,13.74V95.25h2.48v12.06Z"/><path class="cls-6" d="M178,107.6a6.39,6.39,0,0,1-3.31-.79,4.92,4.92,0,0,1-2-2.2,8.2,8.2,0,0,1,0-6.4,5,5,0,0,1,2-2.2,6.41,6.41,0,0,1,3.33-.79,5.56,5.56,0,0,1,4.4,1.71,6.59,6.59,0,0,1,1.5,4.51,7.56,7.56,0,0,1-.63,3.14,5,5,0,0,1-1.95,2.21A6.23,6.23,0,0,1,178,107.6Zm0-2.09a3.34,3.34,0,0,0,2.17-.62,3.25,3.25,0,0,0,1-1.58,6.77,6.77,0,0,0,0-3.92,3.3,3.3,0,0,0-1-1.58,3.34,3.34,0,0,0-2.17-.62,3.46,3.46,0,0,0-2.19.62,3.22,3.22,0,0,0-1.08,1.58,6.77,6.77,0,0,0,0,3.92,3.17,3.17,0,0,0,1.08,1.58A3.46,3.46,0,0,0,178,105.51Z"/><path class="cls-6" d="M186.06,107.31V95.25h2.12l.42,2.8h.06a2.75,2.75,0,0,1,.23-.56,3.72,3.72,0,0,1,.68-1,4.22,4.22,0,0,1,1.27-.9,4.69,4.69,0,0,1,2-.38,4.64,4.64,0,0,1,2.08.4,3.4,3.4,0,0,1,1.3,1.06,4.33,4.33,0,0,1,.69,1.49,9.46,9.46,0,0,1,.27,1.65q.06.83.06,1.56v5.9h-2.39v-5.9a7.74,7.74,0,0,0-.24-2,2.76,2.76,0,0,0-.85-1.42,2.84,2.84,0,0,0-1.86-.53,3,3,0,0,0-2,.59,3.16,3.16,0,0,0-1,1.53,6.31,6.31,0,0,0-.31,2v5.75Z"/><path class="cls-6" d="M204.58,107.6a5.91,5.91,0,0,1-3.05-.84,5.2,5.2,0,0,1-1.18-.94,4.56,4.56,0,0,1-.82-1.18,3.23,3.23,0,0,1-.29-1.34h2.33s0,.15,0,.41a2.55,2.55,0,0,0,.31.87,2.35,2.35,0,0,0,.87.84,3.44,3.44,0,0,0,1.73.35,4.31,4.31,0,0,0,1.44-.2,2.11,2.11,0,0,0,.92-.58,1.32,1.32,0,0,0,.32-.9,1.36,1.36,0,0,0-.56-1.15,4.37,4.37,0,0,0-1.44-.65l-1.88-.48a11.5,11.5,0,0,1-1.85-.64,3.43,3.43,0,0,1-1.42-1.09,3,3,0,0,1-.54-1.88,2.84,2.84,0,0,1,1.35-2.47,6.24,6.24,0,0,1,3.42-.87,7.89,7.89,0,0,1,1.95.24,5.27,5.27,0,0,1,1.69.74,3.66,3.66,0,0,1,1.21,1.32,3.92,3.92,0,0,1,.43,2h-2.3A2.13,2.13,0,0,0,207,98a2.1,2.1,0,0,0-.74-.74,3.05,3.05,0,0,0-1-.35,5.78,5.78,0,0,0-1-.09,3.66,3.66,0,0,0-1.86.41,1.29,1.29,0,0,0-.67,1.15,1.31,1.31,0,0,0,.56,1.14,4.59,4.59,0,0,0,1.44.63c.59.16,1.22.32,1.89.47a10.14,10.14,0,0,1,1.88.64,3.73,3.73,0,0,1,1.45,1.1,3,3,0,0,1,.56,1.89,2.8,2.8,0,0,1-.63,1.89,3.83,3.83,0,0,1-1.76,1.1A8.18,8.18,0,0,1,204.58,107.6Z"/><path class="cls-6" d="M221.38,107.31h-2.44V90.71h2.44ZM221,90.71h4.39a6.12,6.12,0,0,1,4.26,1.35,5.25,5.25,0,0,1,1.49,4.07,4.84,4.84,0,0,1-1.53,3.81,6.16,6.16,0,0,1-4.22,1.35H221V99.44h4.07a4.36,4.36,0,0,0,2.8-.83,3,3,0,0,0,1-2.51,3.08,3.08,0,0,0-1-2.53,4.34,4.34,0,0,0-2.83-.83H221Z"/><path class="cls-6" d="M241.31,95.25h2.42v.44l-4.33,11.62H236l-4.37-11.59v-.47H234l3.72,10h.06Z"/><path class="cls-6" d="M244.73,97V95.25a5.28,5.28,0,0,0,1.09-.09,1.11,1.11,0,0,0,.65-.37,1.81,1.81,0,0,0,.33-.91,13.34,13.34,0,0,0,.08-1.73h2v3.1h2.77V97ZM249,107.31a2.36,2.36,0,0,1-1.83-.65,2.87,2.87,0,0,1-.59-2v-8h2.33v8.64h2.8v2Z"/><path class="cls-6" d="M255.55,107.31a1.37,1.37,0,0,1-1.22-.47,2,2,0,0,1-.31-1.13,1.83,1.83,0,0,1,.32-1.07,1.38,1.38,0,0,1,1.21-.46,1.31,1.31,0,0,1,1.17.46,1.9,1.9,0,0,1,.31,1.07,2,2,0,0,1-.31,1.14A1.31,1.31,0,0,1,255.55,107.31Z"/><path class="cls-6" d="M267.26,107.1V90.71h2.44V107.1Zm0,.21v-2.13H278.4v2.13Z"/><path class="cls-6" d="M279.49,97V95.25a5.28,5.28,0,0,0,1.09-.09,1.11,1.11,0,0,0,.65-.37,1.81,1.81,0,0,0,.33-.91,13.34,13.34,0,0,0,.08-1.73h2v3.1h2.77V97Zm4.28,10.29a2.36,2.36,0,0,1-1.83-.65,2.87,2.87,0,0,1-.59-2v-8h2.33v8.64h2.8v2Z"/><path class="cls-6" d="M294.14,107.6a5,5,0,0,1-2.87-.78,4.53,4.53,0,0,1-1.68-2.17,8.68,8.68,0,0,1-.55-3.18,8.8,8.8,0,0,1,.56-3.26A4.72,4.72,0,0,1,291.3,96a5,5,0,0,1,2.87-.78,4.63,4.63,0,0,1,2,.38,4,4,0,0,1,1.27.92,4.64,4.64,0,0,1,.69,1l.28.56h.06V90.71H301v16.6h-2.13l-.41-2.39h-.06a3.9,3.9,0,0,1-.28.51,4.77,4.77,0,0,1-.75.93,4.37,4.37,0,0,1-1.28.87A4.48,4.48,0,0,1,294.14,107.6Zm.74-2.12a3.53,3.53,0,0,0,1.93-.5,3.29,3.29,0,0,0,1.2-1.42,5.17,5.17,0,0,0,.41-2.12,5.36,5.36,0,0,0-.38-2.08A3.11,3.11,0,0,0,296.9,98a3.38,3.38,0,0,0-1.9-.5,3.44,3.44,0,0,0-2.08.57,3.25,3.25,0,0,0-1.12,1.49,5.62,5.62,0,0,0-.34,1.92,6.05,6.05,0,0,0,.31,2,3.07,3.07,0,0,0,1.06,1.5A3.26,3.26,0,0,0,294.88,105.48Z"/><path class="cls-6" d="M304.94,107.31a1.39,1.39,0,0,1-1.23-.47,2.08,2.08,0,0,1-.31-1.13,1.77,1.77,0,0,1,.33-1.07,1.37,1.37,0,0,1,1.21-.46,1.29,1.29,0,0,1,1.16.46,1.82,1.82,0,0,1,.31,1.07,1.94,1.94,0,0,1-.31,1.14A1.29,1.29,0,0,1,304.94,107.31Z"/></g></g></svg>